<svg xmlns="http://www.w3.org/2000/svg" xmlns:xlink="http://www.w3.org/1999/xlink" width="200" zoomAndPan="magnify" viewBox="0 0 150 60" height="80" preserveAspectRatio="xMidYMid meet" version="1.0"><defs><g/></defs><g fill="#ededed" fill-opacity="1"><g transform="translate(2.356489, 47.198561)"><g><path d="M 19.359375 -26.53125 C 21.734375 -26.53125 23.890625 -25.984375 25.828125 -24.890625 C 27.773438 -23.804688 29.316406 -22.242188 30.453125 -20.203125 C 31.597656 -18.160156 32.171875 -15.789062 32.171875 -13.09375 C 32.171875 -10.394531 31.597656 -8.019531 30.453125 -5.96875 C 29.316406 -3.914062 27.773438 -2.332031 25.828125 -1.21875 C 23.890625 -0.113281 21.734375 0.4375 19.359375 0.4375 C 15.921875 0.4375 13.351562 -0.570312 11.65625 -2.59375 L 11.65625 0 L 2.9375 0 L 2.9375 -35.734375 L 12.09375 -35.734375 L 12.09375 -23.84375 C 13.851562 -25.632812 16.273438 -26.53125 19.359375 -26.53125 Z M 17.4375 -6.84375 C 19.039062 -6.84375 20.351562 -7.394531 21.375 -8.5 C 22.40625 -9.601562 22.921875 -11.132812 22.921875 -13.09375 C 22.921875 -15.019531 22.40625 -16.53125 21.375 -17.625 C 20.351562 -18.71875 19.039062 -19.265625 17.4375 -19.265625 C 15.832031 -19.265625 14.515625 -18.71875 13.484375 -17.625 C 12.453125 -16.53125 11.9375 -15.019531 11.9375 -13.09375 C 11.9375 -11.132812 12.453125 -9.601562 13.484375 -8.5 C 14.515625 -7.394531 15.832031 -6.84375 17.4375 -6.84375 Z M 17.4375 -6.84375 "/></g></g></g><g fill="#ededed" fill-opacity="1"><g transform="translate(30.720393, 47.198561)"><g><path d="M 14.0625 -26.53125 C 18.394531 -26.53125 21.703125 -25.539062 23.984375 -23.5625 C 26.265625 -21.59375 27.40625 -18.570312 27.40625 -14.5 L 27.40625 0 L 18.875 0 L 18.875 -3.375 C 17.5625 -0.832031 14.992188 0.4375 11.171875 0.4375 C 9.148438 0.4375 7.398438 0.0820312 5.921875 -0.625 C 4.441406 -1.332031 3.320312 -2.285156 2.5625 -3.484375 C 1.8125 -4.691406 1.4375 -6.066406 1.4375 -7.609375 C 1.4375 -10.078125 2.382812 -11.992188 4.28125 -13.359375 C 6.175781 -14.722656 9.097656 -15.40625 13.046875 -15.40625 L 18.25 -15.40625 C 18.09375 -18.164062 16.25 -19.546875 12.71875 -19.546875 C 11.457031 -19.546875 10.1875 -19.34375 8.90625 -18.9375 C 7.625 -18.539062 6.535156 -17.988281 5.640625 -17.28125 L 2.546875 -23.5 C 3.992188 -24.457031 5.753906 -25.203125 7.828125 -25.734375 C 9.898438 -26.265625 11.976562 -26.53125 14.0625 -26.53125 Z M 13.71875 -5.34375 C 14.78125 -5.34375 15.710938 -5.597656 16.515625 -6.109375 C 17.316406 -6.628906 17.894531 -7.382812 18.25 -8.375 L 18.25 -10.640625 L 14.296875 -10.640625 C 11.640625 -10.640625 10.3125 -9.757812 10.3125 -8 C 10.3125 -7.195312 10.613281 -6.550781 11.21875 -6.0625 C 11.832031 -5.582031 12.664062 -5.34375 13.71875 -5.34375 Z M 13.71875 -5.34375 "/></g></g></g><g fill="#ededed" fill-opacity="1"><g transform="translate(55.857853, 47.198561)"><g><path d="M 11.65625 -22.96875 C 12.582031 -24.15625 13.789062 -25.046875 15.28125 -25.640625 C 16.78125 -26.234375 18.492188 -26.53125 20.421875 -26.53125 L 20.421875 -18.296875 C 19.585938 -18.390625 18.894531 -18.4375 18.34375 -18.4375 C 16.382812 -18.4375 14.851562 -17.90625 13.75 -16.84375 C 12.644531 -15.789062 12.09375 -14.171875 12.09375 -11.984375 L 12.09375 0 L 2.9375 0 L 2.9375 -26.09375 L 11.65625 -26.09375 Z M 11.65625 -22.96875 "/></g></g></g><g fill="#ededed" fill-opacity="1"><g transform="translate(72.086435, 47.198561)"><g><path d="M 19.359375 -26.53125 C 21.734375 -26.53125 23.890625 -25.984375 25.828125 -24.890625 C 27.773438 -23.804688 29.316406 -22.242188 30.453125 -20.203125 C 31.597656 -18.160156 32.171875 -15.789062 32.171875 -13.09375 C 32.171875 -10.394531 31.597656 -8.019531 30.453125 -5.96875 C 29.316406 -3.914062 27.773438 -2.332031 25.828125 -1.21875 C 23.890625 -0.113281 21.734375 0.4375 19.359375 0.4375 C 15.921875 0.4375 13.351562 -0.570312 11.65625 -2.59375 L 11.65625 0 L 2.9375 0 L 2.9375 -35.734375 L 12.09375 -35.734375 L 12.09375 -23.84375 C 13.851562 -25.632812 16.273438 -26.53125 19.359375 -26.53125 Z M 17.4375 -6.84375 C 19.039062 -6.84375 20.351562 -7.394531 21.375 -8.5 C 22.40625 -9.601562 22.921875 -11.132812 22.921875 -13.09375 C 22.921875 -15.019531 22.40625 -16.53125 21.375 -17.625 C 20.351562 -18.71875 19.039062 -19.265625 17.4375 -19.265625 C 15.832031 -19.265625 14.515625 -18.71875 13.484375 -17.625 C 12.453125 -16.53125 11.9375 -15.019531 11.9375 -13.09375 C 11.9375 -11.132812 12.453125 -9.601562 13.484375 -8.5 C 14.515625 -7.394531 15.832031 -6.84375 17.4375 -6.84375 Z M 17.4375 -6.84375 "/></g></g></g><g fill="#ededed" fill-opacity="1"><g transform="translate(100.450339, 47.198561)"><g><path d="M 29.609375 -13 C 29.609375 -12.9375 29.5625 -12.179688 29.46875 -10.734375 L 10.5 -10.734375 C 10.882812 -9.390625 11.628906 -8.351562 12.734375 -7.625 C 13.847656 -6.90625 15.238281 -6.546875 16.90625 -6.546875 C 18.15625 -6.546875 19.238281 -6.722656 20.15625 -7.078125 C 21.070312 -7.429688 21.992188 -8.007812 22.921875 -8.8125 L 27.734375 -3.796875 C 25.203125 -0.972656 21.492188 0.4375 16.609375 0.4375 C 13.566406 0.4375 10.890625 -0.140625 8.578125 -1.296875 C 6.265625 -2.453125 4.472656 -4.054688 3.203125 -6.109375 C 1.929688 -8.171875 1.296875 -10.5 1.296875 -13.09375 C 1.296875 -15.664062 1.914062 -17.96875 3.15625 -20 C 4.394531 -22.039062 6.101562 -23.640625 8.28125 -24.796875 C 10.46875 -25.953125 12.925781 -26.53125 15.65625 -26.53125 C 18.25 -26.53125 20.601562 -25.992188 22.71875 -24.921875 C 24.84375 -23.847656 26.519531 -22.289062 27.75 -20.25 C 28.988281 -18.207031 29.609375 -15.789062 29.609375 -13 Z M 15.703125 -20.03125 C 14.285156 -20.03125 13.101562 -19.628906 12.15625 -18.828125 C 11.207031 -18.023438 10.609375 -16.929688 10.359375 -15.546875 L 21.046875 -15.546875 C 20.785156 -16.929688 20.179688 -18.023438 19.234375 -18.828125 C 18.285156 -19.628906 17.109375 -20.03125 15.703125 -20.03125 Z M 15.703125 -20.03125 "/></g></g></g><g fill="#ededed" fill-opacity="1"><g transform="translate(126.261983, 47.198561)"><g><path d="M 11.65625 -22.96875 C 12.582031 -24.15625 13.789062 -25.046875 15.28125 -25.640625 C 16.78125 -26.234375 18.492188 -26.53125 20.421875 -26.53125 L 20.421875 -18.296875 C 19.585938 -18.390625 18.894531 -18.4375 18.34375 -18.4375 C 16.382812 -18.4375 14.851562 -17.90625 13.75 -16.84375 C 12.644531 -15.789062 12.09375 -14.171875 12.09375 -11.984375 L 12.09375 0 L 2.9375 0 L 2.9375 -26.09375 L 11.65625 -26.09375 Z M 11.65625 -22.96875 "/></g></g></g></svg>